# xmcd
#
# Track frame offsets:
#	150
#	8430
#	24765
#	43225
#	57034
#	74180
#
# Disc length: 1247 seconds
# Revision: 0
# Processed by: cddbd v1.5.2PL0 Copyright (c) Steve Scherf et al.
# Submitted via: dBpowerAMP V12.0
#
DISCID=4504dd06
DTITLE=No-Man - Schoolyard Ghosts (Alternates - Edits)
DYEAR=2008
DGENRE=Alternative Rock
TTITLE0=Truenorth part 1 - strings
TTITLE1=Truenorth part 2 - alternate
TTITLE2=Beautiful Songs You Should Know - alternate
TTITLE3=Pigeon Beater
TTITLE4=Song of the Surf - alternate
TTITLE5=Truenorth part 2 - video edit
EXTD=
EXTT0=
EXTT1=
EXTT2=
EXTT3=
EXTT4=
EXTT5=
PLAYORDER=
